<svg preserveAspectRatio="none" overflow="visible" style="display: block;" width="20" height="20" viewBox="0 0 20 20" fill="none" xmlns="http://www.w3.org/2000/svg">
<g id="gemini-color 1" clip-path="url(#clip0_0_963)">
<path id="Vector" d="M17.18 9.02917C15.7956 8.43983 14.5369 7.59094 13.4717 6.52833C11.9882 5.04194 10.9299 3.18542 10.4067 1.15167C10.3837 1.06134 10.3313 0.98124 10.2577 0.924028C10.1842 0.866816 10.0936 0.835755 10.0004 0.835755C9.90722 0.835755 9.81668 0.866816 9.7431 0.924028C9.66953 0.98124 9.61712 1.06134 9.59417 1.15167C9.06981 3.18515 8.01132 5.04147 6.52833 6.52833C5.46303 7.59082 4.20429 8.43969 2.82 9.02917C2.27833 9.2625 1.72167 9.45 1.15167 9.59417C1.06079 9.6165 0.980016 9.66866 0.922274 9.7423C0.864532 9.81595 0.833152 9.90683 0.833152 10.0004C0.833152 10.094 0.864532 10.1849 0.922274 10.2585C0.980016 10.3322 1.06079 10.3843 1.15167 10.4067C1.72167 10.55 2.27667 10.7375 2.82 10.9708C4.20437 11.5602 5.46313 12.4091 6.52833 13.4717C8.01216 14.9582 9.07078 16.815 9.59417 18.8492C9.6165 18.94 9.66866 19.0208 9.7423 19.0786C9.81595 19.1363 9.90683 19.1677 10.0004 19.1677C10.094 19.1677 10.1849 19.1363 10.2585 19.0786C10.3322 19.0208 10.3843 18.94 10.4067 18.8492C10.55 18.2783 10.7375 17.7233 10.9708 17.18C11.5601 15.7956 12.409 14.5368 13.4717 13.4717C14.9583 11.9882 16.8151 10.9299 18.8492 10.4067C18.9395 10.3837 19.0196 10.3313 19.0768 10.2577C19.134 10.1842 19.1651 10.0936 19.1651 10.0004C19.1651 9.90722 19.134 9.81668 19.0768 9.7431C19.0196 9.66953 18.9395 9.61712 18.8492 9.59417C18.2786 9.45062 17.7204 9.26169 17.18 9.02917Z" fill="#3186FF"/>
<path id="Vector_2" d="M17.18 9.02917C15.7956 8.43983 14.5369 7.59094 13.4717 6.52833C11.9882 5.04194 10.9299 3.18542 10.4067 1.15167C10.3837 1.06134 10.3313 0.98124 10.2577 0.924028C10.1842 0.866816 10.0936 0.835755 10.0004 0.835755C9.90722 0.835755 9.81668 0.866816 9.7431 0.924028C9.66953 0.98124 9.61712 1.06134 9.59417 1.15167C9.06981 3.18515 8.01132 5.04147 6.52833 6.52833C5.46303 7.59082 4.20429 8.43969 2.82 9.02917C2.27833 9.2625 1.72167 9.45 1.15167 9.59417C1.06079 9.6165 0.980016 9.66866 0.922274 9.7423C0.864532 9.81595 0.833152 9.90683 0.833152 10.0004C0.833152 10.094 0.864532 10.1849 0.922274 10.2585C0.980016 10.3322 1.06079 10.3843 1.15167 10.4067C1.72167 10.55 2.27667 10.7375 2.82 10.9708C4.20437 11.5602 5.46313 12.4091 6.52833 13.4717C8.01216 14.9582 9.07078 16.815 9.59417 18.8492C9.6165 18.94 9.66866 19.0208 9.7423 19.0786C9.81595 19.1363 9.90683 19.1677 10.0004 19.1677C10.094 19.1677 10.1849 19.1363 10.2585 19.0786C10.3322 19.0208 10.3843 18.94 10.4067 18.8492C10.55 18.2783 10.7375 17.7233 10.9708 17.18C11.5601 15.7956 12.409 14.5368 13.4717 13.4717C14.9583 11.9882 16.8151 10.9299 18.8492 10.4067C18.9395 10.3837 19.0196 10.3313 19.0768 10.2577C19.134 10.1842 19.1651 10.0936 19.1651 10.0004C19.1651 9.90722 19.134 9.81668 19.0768 9.7431C19.0196 9.66953 18.9395 9.61712 18.8492 9.59417C18.2786 9.45062 17.7204 9.26169 17.18 9.02917Z" fill="url(#paint0_linear_0_963)"/>
<path id="Vector_3" d="M17.18 9.02917C15.7956 8.43983 14.5369 7.59094 13.4717 6.52833C11.9882 5.04194 10.9299 3.18542 10.4067 1.15167C10.3837 1.06134 10.3313 0.98124 10.2577 0.924028C10.1842 0.866816 10.0936 0.835755 10.0004 0.835755C9.90722 0.835755 9.81668 0.866816 9.7431 0.924028C9.66953 0.98124 9.61712 1.06134 9.59417 1.15167C9.06981 3.18515 8.01132 5.04147 6.52833 6.52833C5.46303 7.59082 4.20429 8.43969 2.82 9.02917C2.27833 9.2625 1.72167 9.45 1.15167 9.59417C1.06079 9.6165 0.980016 9.66866 0.922274 9.7423C0.864532 9.81595 0.833152 9.90683 0.833152 10.0004C0.833152 10.094 0.864532 10.1849 0.922274 10.2585C0.980016 10.3322 1.06079 10.3843 1.15167 10.4067C1.72167 10.55 2.27667 10.7375 2.82 10.9708C4.20437 11.5602 5.46313 12.4091 6.52833 13.4717C8.01216 14.9582 9.07078 16.815 9.59417 18.8492C9.6165 18.94 9.66866 19.0208 9.7423 19.0786C9.81595 19.1363 9.90683 19.1677 10.0004 19.1677C10.094 19.1677 10.1849 19.1363 10.2585 19.0786C10.3322 19.0208 10.3843 18.94 10.4067 18.8492C10.55 18.2783 10.7375 17.7233 10.9708 17.18C11.5601 15.7956 12.409 14.5368 13.4717 13.4717C14.9583 11.9882 16.8151 10.9299 18.8492 10.4067C18.9395 10.3837 19.0196 10.3313 19.0768 10.2577C19.134 10.1842 19.1651 10.0936 19.1651 10.0004C19.1651 9.90722 19.134 9.81668 19.0768 9.7431C19.0196 9.66953 18.9395 9.61712 18.8492 9.59417C18.2786 9.45062 17.7204 9.26169 17.18 9.02917Z" fill="url(#paint1_linear_0_963)"/>
<path id="Vector_4" d="M17.18 9.02917C15.7956 8.43983 14.5369 7.59094 13.4717 6.52833C11.9882 5.04194 10.9299 3.18542 10.4067 1.15167C10.3837 1.06134 10.3313 0.98124 10.2577 0.924028C10.1842 0.866816 10.0936 0.835755 10.0004 0.835755C9.90722 0.835755 9.81668 0.866816 9.7431 0.924028C9.66953 0.98124 9.61712 1.06134 9.59417 1.15167C9.06981 3.18515 8.01132 5.04147 6.52833 6.52833C5.46303 7.59082 4.20429 8.43969 2.82 9.02917C2.27833 9.2625 1.72167 9.45 1.15167 9.59417C1.06079 9.6165 0.980016 9.66866 0.922274 9.7423C0.864532 9.81595 0.833152 9.90683 0.833152 10.0004C0.833152 10.094 0.864532 10.1849 0.922274 10.2585C0.980016 10.3322 1.06079 10.3843 1.15167 10.4067C1.72167 10.55 2.27667 10.7375 2.82 10.9708C4.20437 11.5602 5.46313 12.4091 6.52833 13.4717C8.01216 14.9582 9.07078 16.815 9.59417 18.8492C9.6165 18.94 9.66866 19.0208 9.7423 19.0786C9.81595 19.1363 9.90683 19.1677 10.0004 19.1677C10.094 19.1677 10.1849 19.1363 10.2585 19.0786C10.3322 19.0208 10.3843 18.94 10.4067 18.8492C10.55 18.2783 10.7375 17.7233 10.9708 17.18C11.5601 15.7956 12.409 14.5368 13.4717 13.4717C14.9583 11.9882 16.8151 10.9299 18.8492 10.4067C18.9395 10.3837 19.0196 10.3313 19.0768 10.2577C19.134 10.1842 19.1651 10.0936 19.1651 10.0004C19.1651 9.90722 19.134 9.81668 19.0768 9.7431C19.0196 9.66953 18.9395 9.61712 18.8492 9.59417C18.2786 9.45062 17.7204 9.26169 17.18 9.02917Z" fill="url(#paint2_linear_0_963)"/>
</g>
<defs>
<linearGradient id="paint0_linear_0_963" x1="5.83333" y1="12.9167" x2="9.16667" y2="10" gradientUnits="userSpaceOnUse">
<stop stop-color="#08B962"/>
<stop offset="1" stop-color="#08B962" stop-opacity="0"/>
</linearGradient>
<linearGradient id="paint1_linear_0_963" x1="6.66667" y1="4.58333" x2="9.58333" y2="9.16667" gradientUnits="userSpaceOnUse">
<stop stop-color="#F94543"/>
<stop offset="1" stop-color="#F94543" stop-opacity="0"/>
</linearGradient>
<linearGradient id="paint2_linear_0_963" x1="2.91667" y1="11.25" x2="14.5833" y2="10" gradientUnits="userSpaceOnUse">
<stop stop-color="#FABC12"/>
<stop offset="0.46" stop-color="#FABC12" stop-opacity="0"/>
</linearGradient>
<clipPath id="clip0_0_963">
<rect width="20" height="20" fill="white"/>
</clipPath>
</defs>
</svg>
